<?xml version="1.0" encoding="UTF-8"?>
<svg xmlns="http://www.w3.org/2000/svg" width="177" height="35" viewBox="0 0 177 35" fill="none">
  <path d="M46.9792 25.6849L46.2959 25.1571H49.3081C50.9848 25.1571 52.2733 24.7897 53.1739 24.0547C54.0743 23.3201 54.5245 22.2381 54.5245 20.8099C54.5245 19.4851 54.1519 18.4864 53.4068 17.8133C52.6614 17.141 51.5537 16.8041 50.0844 16.8041H46.4512L46.9792 16.2763V25.6849ZM41.2656 27.486V25.8402L44.1846 25.1571L43.8118 25.6849V7.51987L44.3087 8.17206L41.2656 7.55103V5.90526L46.9172 5.75H56.1703V11.3701H54.2763L53.7173 7.70629L54.3072 8.07885H46.4512L46.9792 7.55103V15.2207L46.3894 14.6305H50.581C53.0235 14.6305 54.8401 15.1586 56.0306 16.2143C57.2208 17.2699 57.8161 18.7604 57.8161 20.6855C57.8161 22.052 57.5055 23.2473 56.8845 24.272C56.2632 25.2968 55.3266 26.0884 54.0743 26.6474C52.8215 27.2063 51.2434 27.486 49.339 27.486H41.2656Z" fill="white"></path>
  <path d="M59.6777 27.486V25.8402L62.6897 25.126L62.2239 25.8093V7.48898L62.7829 8.20322L59.6777 7.55103V5.90526L67.9372 5.75V7.39578L64.8633 8.20322L65.3913 7.48898V21.9279L64.8633 21.7415L76.6007 8.35848L76.2902 9.19681V7.48898L76.818 8.17206L73.7129 7.55103V5.90526L82.0036 5.75V7.39578L78.9605 8.17206L79.4574 7.48898V25.8093L78.9605 25.126L82.0036 25.8402V27.486H73.7129V25.8402L76.7248 25.126L76.2902 25.8093V11.1219L76.818 11.3704L65.0806 24.7845L65.3913 24.0083V25.8093L64.9253 25.126L67.9372 25.8402V27.486H59.6777Z" fill="white"></path>
  <path d="M84.7705 27.486V25.8402L87.6892 25.1571L87.3167 25.6849V7.51987L87.8133 8.17206L84.7705 7.55103V5.90526L90.4218 5.75H99.9545L99.9857 11.4945H98.0606L97.3775 7.70629L98.1226 8.07885H89.956L90.4841 7.55103V25.6849L90.049 25.1571L93.589 25.8402V27.486H84.7705Z" fill="white"></path>
  <path d="M107.157 27.7942C104.859 27.7942 102.613 27.2874 100.419 26.2728L101.288 23.9749C102.22 24.3893 103.182 24.71 104.176 24.9376C105.17 25.1656 106.111 25.2792 107.002 25.2792C107.975 25.2792 108.844 25.1347 109.61 24.8443C110.376 24.5548 110.987 24.1046 111.442 23.4938C111.897 22.8832 112.125 22.112 112.125 21.1802C112.125 20.4147 111.96 19.7418 111.628 19.1622C111.297 18.5828 110.764 18.1218 110.029 17.7802C109.294 17.4388 108.316 17.2679 107.095 17.2679H104.735V14.9702H107.064C108.595 14.9702 109.734 14.6597 110.479 14.0387C111.225 13.4177 111.597 12.517 111.597 11.337C111.597 10.0538 111.204 9.14298 110.418 8.60469C109.631 8.06666 108.606 7.79724 107.343 7.79724C106.743 7.79724 106.08 7.85929 105.356 7.98366C104.631 8.10776 103.907 8.28397 103.182 8.51148L103.648 8.04571L103.245 11.7407H101.32L101.102 6.67956C102.282 6.28658 103.451 5.98063 104.611 5.76332C105.77 5.54602 106.878 5.4375 107.934 5.4375C109.279 5.4375 110.469 5.61881 111.505 5.98063C112.539 6.34325 113.352 6.92292 113.942 7.71962C114.532 8.51685 114.827 9.55691 114.827 10.8403C114.827 11.896 114.614 12.802 114.19 13.5573C113.766 14.3132 113.155 14.9079 112.358 15.3428C111.561 15.7774 110.604 16.0366 109.486 16.1191V15.8706C111.535 15.9947 113.026 16.5333 113.957 17.4852C114.889 18.4377 115.355 19.7007 115.355 21.2734C115.355 22.7435 114.982 23.9595 114.237 24.922C113.492 25.8847 112.492 26.604 111.24 27.08C109.988 27.556 108.627 27.7942 107.157 27.7942Z" fill="white"></path>
  <path d="M136.78 7.11311C134.98 7.11311 133.494 7.98797 132.325 9.73716C131.155 11.4866 130.57 13.7169 130.57 16.4285C130.57 19.1611 131.149 21.3967 132.309 23.1355C133.468 24.8744 134.959 25.7439 136.78 25.7439C138.602 25.7439 140.092 24.8744 141.252 23.1355C142.411 21.3967 142.991 19.1611 142.991 16.4285C142.991 13.6758 142.416 11.4345 141.267 9.706C140.119 7.97776 138.622 7.11311 136.78 7.11311ZM127.62 16.4285C127.62 12.9304 128.469 10.0941 130.167 7.92055C131.864 5.74695 134.068 4.66016 136.78 4.66016C139.513 4.66016 141.733 5.75233 143.441 7.93586C145.149 10.1202 146.002 12.9508 146.002 16.4285C146.002 19.9062 145.149 22.7374 143.441 24.9209C141.733 27.1053 139.513 28.1969 136.78 28.1969C134.068 28.1969 131.864 27.1101 130.167 24.9368C128.469 22.7629 127.62 19.9272 127.62 16.4285Z" fill="white"></path>
  <path d="M154.977 5.84179V23.4479C154.977 24.8761 155.556 25.5903 156.716 25.5903L157.648 25.4971L158.331 25.4353C158.704 25.4353 159.014 25.5492 159.262 25.7767C159.511 26.0048 159.635 26.2943 159.635 26.6462C159.635 27.433 159.139 27.8259 158.149 27.8259H157.622L156.631 27.6554C155.556 27.5412 154.514 27.4845 153.502 27.4845C152.428 27.4845 151.375 27.5412 150.343 27.6554L149.321 27.8259H148.794C147.824 27.8259 147.339 27.4434 147.339 26.6774C147.339 26.3045 147.452 26.0048 147.68 25.7767C147.908 25.5492 148.218 25.4353 148.612 25.4353L149.295 25.4971L150.568 25.5903C151.727 25.5903 152.307 24.8761 152.307 23.4479V9.94052C152.307 8.88488 152.193 8.14486 151.967 7.72045C151.741 7.29631 151.33 7.08384 150.733 7.08384L149.869 7.17705L148.851 7.27026C148.398 7.27026 148.033 7.1604 147.755 6.94067C147.477 6.72149 147.339 6.41178 147.339 6.01262C147.339 5.29839 147.872 4.94141 148.94 4.94141H149.341L151.774 5.12755L153.098 5.03435L154.146 4.94141C154.7 4.94141 154.977 5.24171 154.977 5.84179Z" fill="white"></path>
  <path d="M172.084 5.84179V23.4479C172.084 24.8761 172.663 25.5903 173.823 25.5903L174.754 25.4971L175.437 25.4353C175.81 25.4353 176.12 25.5492 176.369 25.7767C176.617 26.0048 176.741 26.2943 176.741 26.6462C176.741 27.433 176.246 27.8259 175.255 27.8259H174.728L173.737 27.6554C172.663 27.5412 171.62 27.4845 170.609 27.4845C169.535 27.4845 168.482 27.5412 167.449 27.6554L166.427 27.8259H165.901C164.93 27.8259 164.445 27.4434 164.445 26.6774C164.445 26.3045 164.559 26.0048 164.787 25.7767C165.014 25.5492 165.325 25.4353 165.718 25.4353L166.401 25.4971L167.675 25.5903C168.833 25.5903 169.414 24.8761 169.414 23.4479V9.94052C169.414 8.88488 169.3 8.14486 169.074 7.72045C168.848 7.29631 168.436 7.08384 167.839 7.08384L166.975 7.17705L165.957 7.27026C165.504 7.27026 165.139 7.1604 164.861 6.94067C164.584 6.72149 164.445 6.41178 164.445 6.01262C164.445 5.29839 164.979 4.94141 166.046 4.94141H166.447L168.881 5.12755L170.205 5.03435L171.252 4.94141C171.806 4.94141 172.084 5.24171 172.084 5.84179Z" fill="white"></path>
  <path d="M120.821 0H122.794V34.0163H120.821V0Z" fill="white"></path>
  <path d="M16.0984 23.2021C12.5353 23.2021 9.64665 20.4313 9.64665 17.0135C9.64665 13.5957 12.5353 10.8253 16.0984 10.8253C19.6615 10.8253 22.5502 13.5957 22.5502 17.0135C22.5502 20.4313 19.6615 23.2021 16.0984 23.2021ZM30.9579 19.9661C32.5994 18.3313 32.6112 15.6812 30.9843 14.0473C29.9885 13.0472 28.6097 12.6604 27.3134 12.8847C27.7142 14.0948 27.9277 15.3533 27.9581 16.6157C27.8187 16.6297 27.6779 16.6394 27.5348 16.6394C25.1731 16.6394 23.2588 14.7247 23.2588 12.3634C23.2588 10.9631 23.9338 9.72211 24.9738 8.94234C25.7187 9.7855 26.3537 10.7283 26.8528 11.7512C27.9057 11.0141 28.5969 9.79034 28.5998 8.40297C28.6046 6.14476 26.7862 4.30988 24.5382 4.30531C23.1626 4.30236 21.9458 4.98597 21.2066 6.03409C22.288 6.57749 23.2794 7.27373 24.1538 8.09433C23.3697 9.05085 22.1806 9.66302 20.8472 9.66302C18.4855 9.66302 16.5712 7.74863 16.5712 5.38701C16.5712 5.26452 16.5787 5.14391 16.5889 5.02411C17.7436 5.08455 18.8922 5.3024 19.9994 5.68087C20.2202 4.41464 19.8407 3.06165 18.8595 2.08068C17.2626 0.483522 14.6796 0.477613 13.09 2.06725C12.1173 3.03989 11.7432 4.38455 11.9645 5.64783C13.1311 5.25888 14.3441 5.04802 15.562 5.0123C15.573 5.13586 15.5811 5.26049 15.5811 5.38701C15.5811 7.74863 13.6664 9.66302 11.3048 9.66302C9.9303 9.66302 8.70866 9.01352 7.92647 8.00569C8.74896 7.26352 9.67298 6.63202 10.6773 6.13697C9.96684 5.12216 8.78978 4.45762 7.45694 4.45762C5.2871 4.45762 3.52824 6.21675 3.52824 8.38658C3.52824 9.71432 4.18768 10.8876 5.19604 11.5986C5.72252 10.5403 6.40076 9.57088 7.20068 8.71724C8.15748 9.50158 8.76964 10.6905 8.76964 12.0241C8.76964 14.3857 6.85525 16.3001 4.49363 16.3001C4.41761 16.3001 4.34321 16.2942 4.26826 16.2899C4.3475 15.1789 4.5683 14.0755 4.93495 13.0102C3.63622 12.7808 2.24751 13.1673 1.23887 14.1714C-0.402605 15.8061 -0.414424 18.456 1.21255 20.0902C2.20856 21.0902 3.58707 21.477 4.88338 21.2528C4.48181 20.04 4.26826 18.7789 4.23872 17.5134C4.32333 17.5081 4.40767 17.5016 4.49363 17.5016C6.85525 17.5016 8.76964 19.416 8.76964 21.7776C8.76964 23.0656 8.19965 24.2201 7.29873 25.0042C6.5125 24.1247 5.84366 23.1371 5.32041 22.0642C4.24006 22.8204 3.5312 24.0756 3.52824 25.4989C3.52314 27.8157 5.38864 29.6979 7.69466 29.7027C9.10594 29.7057 10.3542 29.0043 11.1125 27.9291C9.92816 27.3341 8.85076 26.5589 7.91062 25.6421C8.69228 24.789 9.81426 24.2531 11.0625 24.2531C13.4241 24.2531 15.3385 26.1678 15.3385 28.5291C15.3385 28.6516 15.3323 28.7722 15.3221 28.892C14.1499 28.8249 12.9847 28.6001 11.8613 28.2133C11.632 29.512 12.0185 30.9007 13.0228 31.9093C14.6573 33.5511 17.3074 33.5629 18.9414 31.9357C19.9414 30.9399 20.3282 29.5611 20.1039 28.2648C18.8818 28.6696 17.6101 28.8832 16.3345 28.91C16.3326 28.8582 16.3289 28.8066 16.3289 28.7542C16.3289 26.3926 18.2433 24.4782 20.6049 24.4782C21.9265 24.4782 23.1059 25.0796 23.8903 26.0219C23.0444 26.7574 22.1029 27.3862 21.0841 27.8834C21.8402 28.9638 23.0954 29.6726 24.5185 29.6756C26.8353 29.6807 28.7175 27.8152 28.7226 25.5092C28.7255 24.0979 28.0239 22.8494 26.9487 22.0914C26.3741 23.2351 25.6314 24.2797 24.7555 25.1968C23.8403 24.4127 23.2588 23.2501 23.2588 21.9506C23.2588 19.589 25.1731 17.6746 27.5348 17.6746C27.6712 17.6746 27.8055 17.6829 27.9388 17.6955C27.8695 18.8578 27.6454 20.0134 27.2619 21.1273C28.5606 21.3567 29.9493 20.9702 30.9579 19.9661Z" fill="white"></path>
</svg>
